<?xml version="1.0" encoding="UTF-8" standalone="no"?>
<svg
   version="1.1"
   viewBox="0 0 882 240"
   id="svg188"
   sodipodi:docname="logo.svg"
   inkscape:version="1.3 (0e150ed, 2023-07-21)"
   width="882"
   height="240"
   xmlns:inkscape="http://www.inkscape.org/namespaces/inkscape"
   xmlns:sodipodi="http://sodipodi.sourceforge.net/DTD/sodipodi-0.dtd"
   xmlns="http://www.w3.org/2000/svg"
   xmlns:svg="http://www.w3.org/2000/svg">
  <defs
     id="defs188" />
  <sodipodi:namedview
     id="namedview188"
     pagecolor="#ffffff"
     bordercolor="#000000"
     borderopacity="0.25"
     inkscape:showpageshadow="2"
     inkscape:pageopacity="0.0"
     inkscape:pagecheckerboard="0"
     inkscape:deskcolor="#d1d1d1"
     inkscape:zoom="0.9866051"
     inkscape:cx="452.56203"
     inkscape:cy="210.82397"
     inkscape:window-width="1920"
     inkscape:window-height="1147"
     inkscape:window-x="0"
     inkscape:window-y="25"
     inkscape:window-maximized="1"
     inkscape:current-layer="svg188"
     showgrid="false" />
  <g
     id="g188"
     transform="matrix(0.33842115,0,0,0.33842115,2.3201609,3.756633)">
    <g
       stroke-width="2"
       fill="none"
       stroke-linecap="butt"
       id="g138"
       transform="translate(-169.08075,-169.08075)">
      <path
         stroke="#a7adba"
         vector-effect="non-scaling-stroke"
         d="m 414.15,175.81 q -4.73,-0.07 -9.15,-0.04 -30.37,0.22 -60.75,0.22 -13.45,0 -19.99,0.59 c -33.97,3.1 -66.53,18.24 -92.45,40.49 -31.43,26.98 -49.69,65.23 -54.95,105.98 q -1.06,8.22 -1.08,19.96 c -0.2,114.83 0.02,229.66 -0.02,344.49 q -0.01,12.28 0.94,19.95 c 3.14,25.55 12.21,50.25 25.92,72.16 18.47,29.52 47.89,51.51 80.64,62.82 23.72,8.2 42.49,7.85 69.99,7.74 q 31.22,-0.13 62.43,-0.35 0.23,0 0.34,-0.11 0.16,-0.17 0,-0.41"
         id="path1" />
      <path
         stroke="#284a66"
         vector-effect="non-scaling-stroke"
         d="m 416.02,849.3 0.41,0.15 q 0.24,0.09 0.49,0.09 l 40.26,-0.63"
         id="path2" />
      <path
         stroke="#286c95"
         vector-effect="non-scaling-stroke"
         d="m 457.18,848.91 q 0.55,0.6 1.32,0.59 50.37,-0.56 100.75,-0.25 1.41,0.01 5.59,0.26"
         id="path3" />
      <path
         stroke="#284a66"
         vector-effect="non-scaling-stroke"
         d="m 564.84,849.51 41.5,-0.05"
         id="path4" />
      <path
         stroke="#a7adba"
         vector-effect="non-scaling-stroke"
         d="m 606.34,849.46 q 0.31,0.47 0.66,0.47 21.71,0.1 75.75,0.18 18.71,0.02 20,-0.02 c 25.86,-0.97 50.27,-9.85 72.17,-23.57 40.76,-25.53 66.3,-70.32 72.79,-117.33 q 1.1,-7.91 1.12,-19.94 0.39,-172.75 -0.13,-345.5 -0.04,-12.4 -0.94,-19.96 C 842.67,281.4 822.74,241.95 789.77,214.48 772.68,200.24 753.22,189.21 731.93,182.72 719.5,178.92 706.6,176.24 695,176.22 q -42.91,-0.08 -86.26,-0.26"
         id="path5" />
      <path
         stroke="#284a66"
         vector-effect="non-scaling-stroke"
         d="m 608.74,175.96 q -0.33,-0.76 -1.99,-0.72 -21.84,0.57 -37.5,0.15 -0.53,-0.01 -0.95,0.39"
         id="path6" />
      <path
         stroke="#2b8ab8"
         vector-effect="non-scaling-stroke"
         d="m 568.3,175.78 q -1.83,-0.8 -2.8,-0.8 -55.25,0.32 -110.5,0.24 -0.2,0.26 -0.8,0.24"
         id="path7" />
      <path
         stroke="#284a66"
         vector-effect="non-scaling-stroke"
         d="m 454.2,175.46 q 0,-0.09 -0.08,-0.27 -0.1,-0.26 -0.39,-0.26 l -39.58,0.88"
         id="path8" />
      <path
         stroke="#047aaa"
         vector-effect="non-scaling-stroke"
         d="m 454.2,175.46 q -4.38,7.61 -7.4,15.7"
         id="path9" />
      <path
         stroke="#025c87"
         vector-effect="non-scaling-stroke"
         d="m 446.8,191.16 q -5.91,11.88 -7.64,24.15"
         id="path10" />
      <path
         stroke="#809dab"
         vector-effect="non-scaling-stroke"
         d="m 439.16,215.31 q -2.6,10.9 -4.57,22.2 -1.6,9.17 -1.66,18.53"
         id="path11" />
      <path
         stroke="#047aaa"
         vector-effect="non-scaling-stroke"
         d="m 432.93,256.04 q -1.31,8.41 -0.82,16.27 0.25,4.05 1.02,7"
         id="path12" />
      <path
         stroke="#025c87"
         vector-effect="non-scaling-stroke"
         d="m 433.13,279.31 q 0.96,11.78 2.17,18.94 0.29,1.71 1.35,4.17"
         id="path13" />
      <path
         stroke="#809dab"
         vector-effect="non-scaling-stroke"
         d="m 436.65,302.42 q 0.28,2.61 0.89,5.07 3.89,15.78 9.72,30.01"
         id="path14" />
      <path
         stroke="#6a4069"
         vector-effect="non-scaling-stroke"
         d="m 447.26,337.5 q 5.84,14.14 12.77,25.45"
         id="path15" />
      <path
         stroke="#3b2f5b"
         vector-effect="non-scaling-stroke"
         d="m 460.03,362.95 q 6.96,12.29 14.95,21.86"
         id="path16" />
      <path
         stroke="#809dab"
         vector-effect="non-scaling-stroke"
         d="m 474.98,384.81 c 10.85,14.35 23.2,26.96 35.66,39.69 a 0.91,0.91 0 0 0 1.3,0.01 c 12.44,-12.62 25.73,-25.81 35.75,-40.56"
         id="path17" />
      <path
         stroke="#3b2f5b"
         vector-effect="non-scaling-stroke"
         d="m 547.69,383.95 q 8.67,-9.98 14.6,-21.78"
         id="path18" />
      <path
         stroke="#6a4069"
         vector-effect="non-scaling-stroke"
         d="m 562.29,362.17 q 7.44,-12.02 12.75,-24.75"
         id="path19" />
      <path
         stroke="#809dab"
         vector-effect="non-scaling-stroke"
         d="m 575.04,337.42 q 7.03,-17.57 11.08,-35.03"
         id="path20" />
      <path
         stroke="#025c87"
         vector-effect="non-scaling-stroke"
         d="m 586.12,302.39 3.67,-23.25"
         id="path21" />
      <path
         stroke="#047aaa"
         vector-effect="non-scaling-stroke"
         d="m 589.79,279.14 q 1.16,-11.43 0.62,-22.42"
         id="path22" />
      <path
         stroke="#809dab"
         vector-effect="non-scaling-stroke"
         d="m 590.41,256.72 q -0.49,-2.1 -0.5,-4.65 c -0.04,-11.97 -3.09,-25.29 -6.2,-36.89"
         id="path23" />
      <path
         stroke="#025c87"
         vector-effect="non-scaling-stroke"
         d="m 583.71,215.18 -7.53,-23.45"
         id="path24" />
      <path
         stroke="#047aaa"
         vector-effect="non-scaling-stroke"
         d="m 576.18,191.73 c -2.48,-5.62 -4.51,-10.94 -7.88,-15.95"
         id="path25" />
      <path
         stroke="#809dab"
         vector-effect="non-scaling-stroke"
         d="m 608.74,175.96 c 9.67,23.19 15.02,43.06 17.43,65.29 q 4.29,39.56 -7.12,78.34 -4.64,15.76 -12.48,33.96 c -15.89,36.92 -41.26,66.39 -70.53,93.49 q -1.71,1.58 -0.22,3.35 4.6,5.47 8.01,8.77 0.33,0.31 -0.01,0.6 -5.41,4.61 -10.51,9.55 c -48.29,46.76 -96.35,93.79 -144.99,140.12 q -7.05,6.72 -14.39,13.89 c -20.1,19.64 -40.38,39 -60.85,58.24 q -10.19,9.58 -10.44,22.91"
         id="path26" />
      <path
         stroke="#4b7690"
         vector-effect="non-scaling-stroke"
         d="m 302.64,704.47 -0.4,2.67"
         id="path27" />
      <path
         stroke="#01314a"
         vector-effect="non-scaling-stroke"
         d="m 302.24,707.14 q -12.1,10.54 -28.29,6.53"
         id="path28" />
      <path
         stroke="#809dab"
         vector-effect="non-scaling-stroke"
         d="m 273.95,713.67 q -3.86,-31.19 18.44,-52.29 25.13,-23.78 39.87,-38.25 c 31.94,-31.36 64.28,-62.25 95.92,-93.94 q 0.47,-0.46 1.02,-1.79"
         id="path29" />
      <path
         stroke="#01314a"
         vector-effect="non-scaling-stroke"
         d="m 429.2,527.4 2.23,1.59 a 2.24,2.24 0 0 0 2.98,-0.35 c 4.86,-5.53 9.96,-11.95 16.02,-16.44 q 0.54,-0.39 0.68,-0.83 0.22,-0.63 -0.06,-1.14"
         id="path30" />
      <path
         stroke="#225171"
         vector-effect="non-scaling-stroke"
         d="m 451.05,510.23 q 1.25,-0.17 1.68,-0.6 6.26,-6.19 12.54,-12.36 12.58,-12.36 24.68,-24 1.25,-1.2 0.04,-2.43 l -8.78,-8.95"
         id="path31" />
      <path
         stroke="#688ca0"
         vector-effect="non-scaling-stroke"
         d="m 481.21,461.89 q -1.44,-0.52 -1.54,-2.04"
         id="path32" />
      <path
         stroke="#809dab"
         vector-effect="non-scaling-stroke"
         d="m 479.67,459.85 9.06,-9.16 a 0.74,0.74 0 0 0 0,-1.05 q -15.47,-15.29 -30.24,-31.41 c -23.51,-25.65 -41.92,-55.59 -52.73,-88.73 -1.98,-6.04 -3.45,-12.8 -5,-19.25 q -1.8,-7.46 -2.83,-14.63 -1.94,-13.41 -2.18,-17.62 -0.75,-13.27 1.03,-36.76 2.41,-31.86 17.37,-65.43"
         id="path33" />
      <path
         stroke="#81bedb"
         vector-effect="non-scaling-stroke"
         d="m 583.71,215.18 -144.55,0.13"
         id="path34" />
      <path
         stroke="#ba92af"
         vector-effect="non-scaling-stroke"
         d="m 547.69,383.95 q -2.54,0.62 -4.44,0.63 -33.85,0.06 -68.27,0.23"
         id="path35" />
      <path
         stroke="#059cd9"
         vector-effect="non-scaling-stroke"
         d="m 589.79,279.14 -156.66,0.17"
         id="path36" />
      <path
         stroke="#81bedb"
         vector-effect="non-scaling-stroke"
         d="m 586.12,302.39 -149.47,0.03"
         id="path37" />
      <path
         stroke="#7a98b5"
         vector-effect="non-scaling-stroke"
         d="m 675.76,413.63 q -1.92,0.92 -3.82,1.76 c -5.07,2.25 -12.88,-0.05 -16.09,4.54"
         id="path38" />
      <path
         stroke="#7a98b5"
         vector-effect="non-scaling-stroke"
         d="m 654.28,421.47 q -0.74,-0.06 -1.27,0.78 a 1.63,1.58 -86.1 0 1 -0.67,0.6 c -1.3,0.62 -2.46,1.21 -3.55,2.2 -3.59,3.22 -7.1,6.26 -10.56,9.77 -9.48,9.64 -19.63,18.72 -29.19,28.12 q -8.62,8.48 -20.45,19.4 -18.55,17.13 -54.55,52.55 c -24.5,24.1 -50.18,47.02 -74.88,70.92 q -11.47,11.09 -23.13,21.97 c -3.42,3.19 -7.16,7.25 -10.05,9.95 q -11.88,11.12 -20.99,20.11 c -10.37,10.23 -20.81,19.95 -30.94,30.21 q -2.14,2.17 -7.02,6.47 c -4.33,3.82 -8.37,8.63 -12.84,12.77 q -0.92,0.86 -3.35,3.92 -2,2.51 -5.03,3.99"
         id="path39" />
      <path
         stroke="#b2c8d9"
         vector-effect="non-scaling-stroke"
         d="m 345.81,715.2 q 1.33,-2.34 3.21,-4.04 1.85,-1.65 2.24,-2.86 0.63,-1.93 0.13,-3.84"
         id="path40" />
      <path
         stroke="#4b6d83"
         vector-effect="non-scaling-stroke"
         d="m 351.39,704.46 c 2.45,-3.84 1.48,-9.93 -1.48,-13.19 -3.01,-3.31 -7.67,-5.49 -12.37,-4.77 a 1.5,1.45 -72.5 0 0 -0.85,0.46 c -2.22,2.48 -5.91,6.27 -5.87,9.5 q 0.01,0.52 -0.52,0.48 -8.48,-0.67 -9.8,6.92"
         id="path41" />
      <path
         stroke="#cad9e4"
         vector-effect="non-scaling-stroke"
         d="m 320.5,703.86 q -1.03,4.06 0.4,7.56 c 2.89,7.04 8.44,10.57 16.12,8.28"
         id="path42" />
      <path
         stroke="#b2c8d9"
         vector-effect="non-scaling-stroke"
         d="m 337.02,719.7 q 4.35,-1.28 7.85,-3.76"
         id="path43" />
      <path
         stroke="#7a98b5"
         vector-effect="non-scaling-stroke"
         d="m 344.87,715.94 q -0.01,0.58 -0.48,0.82 c -1,0.53 -1.78,1.36 -2.37,2.35 q -0.28,0.45 0.11,0.81 1.83,1.74 1.47,4.36 a 1.33,1.21 -53 0 0 0.06,0.63 l 0.51,1.49 q 0.17,0.47 0.15,0.97 -0.06,1.38 -0.67,2.53 a 0.74,0.73 39 0 0 0.09,0.84 q 0.58,0.66 1.4,0.9 0.26,0.07 0.24,0.33 0,0.15 -0.01,0.32 0,0.3 -0.3,0.38 -1.08,0.28 -1.06,1.42"
         id="path44" />
      <path
         stroke="#e7eff4"
         vector-effect="non-scaling-stroke"
         d="m 479.67,459.85 q -6.53,-3.35 -11.75,-8.84 -5.74,-6.03 -5.8,-6.09 c -20.58,-19.83 -40.31,-40.5 -60.87,-60.32 q -9.43,-9.09 -18.3,-18.28"
         id="path45" />
      <path
         stroke="#cad9e4"
         vector-effect="non-scaling-stroke"
         d="m 382.95,366.32 q 1.39,-6.18 1.37,-12.3 -0.07,-25.22 0.3,-75.41 0.01,-1.3 -1.64,-2.62"
         id="path46" />
      <path
         stroke="#e7eff4"
         vector-effect="non-scaling-stroke"
         d="m 382.98,275.99 q -0.53,-4.66 -5.09,-7.33 c -5.93,-3.48 -10.2,0.84 -14.01,4.72 q -12.57,12.81 -25.66,25.09 -4.61,4.33 -7.18,4.7 c -4.28,0.61 -7,1.75 -10.19,5.02 -10.6,10.85 -21.11,21.76 -31.81,32.52 q -1.13,1.15 -2.25,3.79"
         id="path47" />
      <path
         stroke="#a1b3c5"
         vector-effect="non-scaling-stroke"
         d="m 286.79,344.5 q -6.76,3.65 -6.89,10.99 -0.05,3.34 0.23,16.01 c 0.15,6.62 -2.72,11.71 -7.96,16"
         id="path48" />
      <path
         stroke="#809dab"
         vector-effect="non-scaling-stroke"
         d="m 272.17,387.5 q -1.28,-1.2 -4,-5.17 -3.37,-4.93 -9.9,-5.06 -3.09,-0.06 -4.8,1.42 -4.4,3.79 -13.94,13.47"
         id="path49" />
      <path
         stroke="#80939e"
         vector-effect="non-scaling-stroke"
         d="m 239.53,392.16 c -5.48,5 -4.08,11.31 0.81,16.01 q 17.97,17.26 35.21,35.29 c 3.83,4.01 9.48,5.28 14.36,2.46 4.67,-2.7 9.02,-8.32 12.83,-12.2 q 5.77,-5.88 1.38,-14.56"
         id="path50" />
      <path
         stroke="#a1b3c5"
         vector-effect="non-scaling-stroke"
         d="m 304.12,419.16 q -0.21,-4.9 3.94,-8.19"
         id="path51" />
      <path
         stroke="#80939e"
         vector-effect="non-scaling-stroke"
         d="m 308.06,410.97 q 4.6,-2.59 7.98,0.98 c 37.07,39.08 75.4,77.03 113.16,115.45"
         id="path52" />
      <path
         stroke="#80939e"
         vector-effect="non-scaling-stroke"
         d="m 273.95,713.67 c 2.7,20.86 16.14,40.91 36.55,47.59 20.84,6.82 42.62,3.58 59.27,-10.95 6.09,-5.31 13.46,-13.52 19.39,-19.35 41.45,-40.79 82.7,-81.81 124.1,-122.65 a 0.81,0.81 0 0 1 1.14,0.01 q 54.48,54.05 108.23,108.17 c 8.82,8.88 19.74,20.37 29.82,30.34 14.32,14.14 34.12,20.27 53.75,16.83 25.15,-4.41 42.1,-24.39 45.69,-49.18"
         id="path53" />
      <path
         stroke="#809dab"
         vector-effect="non-scaling-stroke"
         d="m 751.89,714.48 q 2.2,-17.55 -3.74,-32.16 -4.54,-11.16 -15.16,-21.57 -47.17,-46.26 -94.66,-92.2 c -10.3,-9.96 -21.38,-21.31 -32.28,-31.79"
         id="path54" />
      <path
         stroke="#80939e"
         vector-effect="non-scaling-stroke"
         d="m 606.05,536.76 -7.61,-7.95 a 0.8,0.8 0 0 1 0.07,-1.17 q 5.49,-4.63 10.69,-9.75 c 24.52,-24.17 49.68,-47.69 74.27,-71.77 a 1.45,1.45 0 0 1 1.45,-0.35 c 13.44,4.27 26.73,4.36 40.58,2.38 q 11.62,-1.66 22.01,-7.09 27.88,-14.56 38.59,-44.06 3.97,-10.96 4.28,-14.92 0.37,-4.93 0.69,-9.84 0.95,-14.45 -2.19,-28.42"
         id="path55" />
      <path
         stroke="#809dab"
         vector-effect="non-scaling-stroke"
         d="m 788.88,343.82 q -2.13,-9.72 -7.64,-17.72 a 0.63,0.62 -40.2 0 0 -0.96,-0.08 l -50.21,51.79 q -0.65,0.67 -1.7,0.67 l -16.38,0.06 a 1.11,1.1 -22.7 0 1 -0.77,-0.31 l -21.58,-20.2 a 1.45,1.45 0 0 1 -0.46,-1.06 l -0.09,-19.56 q 0,-0.97 0.64,-1.71 3.07,-3.57 6.15,-6.86 19.38,-20.71 39.18,-41.03 0.6,-0.62 0.86,-0.96 a 1.37,1.37 0 0 0 -0.5,-2.06 c -13.24,-6.39 -28.14,-7 -42.42,-5.02 -21.58,3 -42.57,15.01 -55.31,32.69 q -13.72,19.05 -15.91,42.54 -0.8,8.56 0.82,22.67"
         id="path56" />
      <path
         stroke="#e7eff4"
         vector-effect="non-scaling-stroke"
         d="m 622.6,377.67 -0.4,2.53 q -0.08,0.49 -0.39,0.87 -0.69,0.85 -0.62,1.96 0.03,0.5 -0.2,0.94 -1.23,2.47 -1.73,3.07 -11.4,13.61 -17.7,19.28 -5.8,5.21 -10.92,11.08 c -0.67,0.76 -1.65,1.35 -2.26,2.07 -4.34,5.21 -10.65,11.08 -13.97,14.5 -9.13,9.43 -17.45,17.85 -27.05,28.51 q -10.09,11.2 -20.96,21.67 -22.5,21.67 -44.63,43.72 c -15.54,15.48 -32.06,29.92 -47.48,45.49 -7.15,7.21 -14.54,14.26 -21.77,21.42 -8.08,7.99 -16.73,15.68 -26.18,24.81 q -19.58,18.92 -39.08,37.93 -4.18,4.08 -8.55,7.95 -4.29,3.8 -7.24,7.3"
         id="path57" />
      <path
         stroke="#cad9e4"
         vector-effect="non-scaling-stroke"
         d="m 331.47,672.77 q -8.15,6.91 -15.11,13.59 c -5.61,5.38 -7.26,12.06 -10.35,18.87 a 0.65,0.65 0 0 1 -1.24,-0.24 l -0.06,-1.45 q -0.02,-0.66 -0.21,-0.03 -0.28,0.91 -0.81,1.96 -0.13,0.26 -0.33,0.36 -0.47,0.24 -0.48,-0.29 -0.01,-0.53 -0.24,-1.07"
         id="path58" />
      <path
         stroke="#809dab"
         vector-effect="non-scaling-stroke"
         d="m 606.34,849.46 c 9.26,-19.98 16.4,-41.87 18.98,-63.82 0.75,-6.32 1.95,-12.79 2.12,-18.89 q 0.16,-5.28 0.09,-10.43"
         id="path59" />
      <path
         stroke="#80939e"
         vector-effect="non-scaling-stroke"
         d="m 627.53,756.32 -0.06,-13.71 a 1.26,1.25 -66.4 0 0 -0.33,-0.85 c -14.29,-15.88 -29.75,-30.53 -45.06,-45.47 a 0.54,0.53 29.8 0 0 -0.89,0.24 q -0.22,0.78 0.09,1.79 1.74,5.59 3.41,11.12"
         id="path60" />
      <path
         stroke="#809dab"
         vector-effect="non-scaling-stroke"
         d="m 584.69,709.44 1.63,5.57"
         id="path61" />
      <path
         stroke="#83ddfe"
         vector-effect="non-scaling-stroke"
         d="m 586.32,715.01 q -0.23,0.85 -1.82,0.86 -73.67,0.32 -147.61,-0.03"
         id="path62" />
      <path
         stroke="#809dab"
         vector-effect="non-scaling-stroke"
         d="m 436.89,715.84 0.9,-2.71"
         id="path63" />
      <path
         stroke="#80939e"
         vector-effect="non-scaling-stroke"
         d="m 437.79,713.13 q 1.73,-8.24 4.98,-15.28 0.81,-1.77 -0.61,-0.44 c -15.75,14.6 -30.87,29.88 -45.62,45.49 a 1.26,1.24 67 0 0 -0.34,0.86 l -0.08,8.03"
         id="path64" />
      <path
         stroke="#809dab"
         vector-effect="non-scaling-stroke"
         d="m 396.12,751.79 c -0.48,16.58 -0.2,29.07 2.83,44.1 3.72,18.41 9.06,36.33 17.07,53.41"
         id="path65" />
      <path
         stroke="#83ddfe"
         vector-effect="non-scaling-stroke"
         d="m 590.41,256.72 q -76.63,-0.35 -152.91,-0.21 -1.29,0 -4.57,-0.47"
         id="path66" />
      <path
         stroke="#e9a3bd"
         vector-effect="non-scaling-stroke"
         d="M 575.04,337.42 447.26,337.5"
         id="path67" />
      <path
         stroke="#a4356d"
         vector-effect="non-scaling-stroke"
         d="m 562.29,362.17 q -43.56,-0.27 -86.79,-0.15 -10.05,0.03 -15.47,0.93"
         id="path68" />
      <path
         stroke="#224764"
         vector-effect="non-scaling-stroke"
         d="m 434,493.27 17.05,16.96"
         id="path69" />
      <path
         stroke="#059cd9"
         vector-effect="non-scaling-stroke"
         d="m 576.18,191.73 q -1.8,0.5 -5.68,0.5 -61.38,0 -122.75,0.04 -1.36,0.01 -0.95,-1.11"
         id="path70" />
      <path
         stroke="#01314a"
         vector-effect="non-scaling-stroke"
         d="m 606.05,536.76 c -0.99,5.75 -4.14,5.08 -6.84,8.77 -3.25,4.45 -6.37,7.16 -9.68,10.67 -1.32,1.4 -2.38,1.38 -4.15,1.1"
         id="path71" />
      <path
         stroke="#224764"
         vector-effect="non-scaling-stroke"
         d="m 585.38,557.3 -8.39,-7.16 q -1.06,-0.9 -2.05,0.07 l -39.36,38.49 q -0.55,0.54 -0.01,1.09 l 15.62,15.71"
         id="path72" />
      <path
         stroke="#30536e"
         vector-effect="non-scaling-stroke"
         d="M 551.19,605.5 677.87,731.63"
         id="path73" />
      <path
         stroke="#4b6d83"
         vector-effect="non-scaling-stroke"
         d="m 677.87,731.63 q 10.17,7.15 24.17,3.82 c 12.78,-3.03 20.56,-14.26 21.03,-27.18"
         id="path74" />
      <path
         stroke="#01314a"
         vector-effect="non-scaling-stroke"
         d="m 723.07,708.27 q 0.76,-0.69 0.53,-1.87 0,-0.02 -0.02,-0.02 -0.46,-0.11 0.13,0.01 a 0.08,0.08 0 0 1 0.06,0.1 q -0.57,2.22 0.12,4.15 1.06,2.97 1.19,3.4 c 2.2,7.17 13.1,2.68 18.36,1.89 2.32,-0.36 5.5,-1.35 8.45,-1.45"
         id="path75" />
      <path
         stroke="#4b6d83"
         vector-effect="non-scaling-stroke"
         d="m 302.24,707.14 c 1.41,13.64 10.22,26.81 24.25,28.74 5.53,0.76 11.67,0.35 17.52,-1.79"
         id="path76" />
      <path
         stroke="#30536e"
         vector-effect="non-scaling-stroke"
         d="m 344.01,734.09 q 4.17,-2.16 7.49,-5.59 c 23.49,-24.29 48.83,-46.7 72.62,-70.67 6.49,-6.54 13.55,-12.98 20.24,-19.59 15.49,-15.3 34.58,-32.75 46.07,-43.81 q 15.51,-14.93 25.63,-24.39 c 8.32,-7.78 16.26,-15.65 24.45,-23.39 19,-17.96 37.57,-35.53 56.04,-53.58 q 18.08,-17.67 36.58,-34.91 c 9.34,-8.71 18.24,-17.72 27.43,-26.72 q 0.51,-0.5 0.12,-1.1 c -0.97,-1.52 -5.76,-4.04 -7.39,-5.02 a 1.29,1.29 0 0 1 -0.39,-1.84 l 1.38,-2.01"
         id="path77" />
      <path
         stroke="#4b6d83"
         vector-effect="non-scaling-stroke"
         d="m 654.28,421.47 1.57,-1.54"
         id="path78" />
      <path
         stroke="#30536e"
         vector-effect="non-scaling-stroke"
         d="m 655.85,419.93 q 2.14,0.11 4.42,0.28 9.73,0.72 15.49,-6.58"
         id="path79" />
      <path
         stroke="#4b6d83"
         vector-effect="non-scaling-stroke"
         d="m 675.76,413.63 q 0.2,-0.41 0.39,-0.82"
         id="path80" />
      <path
         stroke="#89a3ba"
         vector-effect="non-scaling-stroke"
         d="m 481.21,461.89 -15.23,15.3"
         id="path81" />
      <path
         stroke="#b2c8d9"
         vector-effect="non-scaling-stroke"
         d="M 465.98,477.19 Q 449.73,462.1 434.36,446.23 c -5.57,-5.76 -12.14,-11.39 -18.04,-17.3 -13.83,-13.86 -27.44,-27.12 -41.57,-41.77 q -0.45,-0.47 -0.79,-0.17"
         id="path82" />
      <path
         stroke="#97aec5"
         vector-effect="non-scaling-stroke"
         d="m 344.87,715.94 q 0.42,-0.66 0.94,-0.74"
         id="path83" />
      <path
         stroke="#e7eff4"
         vector-effect="non-scaling-stroke"
         d="m 341.28,707.46 c 2.55,3.27 -0.33,6.17 -1.29,9.28 q -0.37,1.19 -2.97,2.96"
         id="path84" />
      <path
         stroke="#01314a"
         vector-effect="non-scaling-stroke"
         d="m 788.88,343.82 q -2.83,-0.56 -3.32,1.33 c -0.69,2.73 -2.01,5.06 -2.59,7.73 -1.38,6.3 -4.12,11.97 -5.97,17.77 -6.56,20.63 -20.12,36.02 -40.83,44.37 -5.53,2.23 -13.8,4.49 -20.42,4.87 q -20.41,1.18 -39.6,-7.08"
         id="path85" />
      <path
         stroke="#4b7690"
         vector-effect="non-scaling-stroke"
         d="m 676.15,412.81 q 3.72,-4.41 3.97,-10.75 c 0.76,-19.56 -26.77,-25.71 -34.64,-7.38 -1.17,2.74 -2.13,5.66 -4.14,7.79 q -2.99,3.18 -6.5,4.71"
         id="path86" />
      <path
         stroke="#688ca0"
         vector-effect="non-scaling-stroke"
         d="m 634.84,407.18 c -5.79,-9.49 -10.31,-18.73 -12.24,-29.51"
         id="path87" />
      <path
         stroke="#688393"
         vector-effect="non-scaling-stroke"
         d="m 351.39,704.46 q -4.56,3.25 -10.11,3"
         id="path88" />
      <path
         stroke="#80939e"
         vector-effect="non-scaling-stroke"
         d="m 341.28,707.46 c -4.29,-1.48 -5.69,-5.85 -9.14,-8.5 q -0.4,-0.32 -0.91,-0.35 -6.29,-0.4 -10.73,5.25"
         id="path89" />
      <path
         stroke="#b2c8d9"
         vector-effect="non-scaling-stroke"
         d="m 634.84,407.18 q -1.09,1.23 -2.3,2.65 -1.16,1.35 -2.44,2.51 c -13.04,11.77 -25.96,24.4 -38.38,36.02 q -17.07,15.98 -33.93,32.18 c -28.61,27.48 -57.8,54.33 -86.6,81.62 -39.2,37.14 -78.24,74.45 -117.53,111.5 q -2.53,2.39 -5.66,2.29 -8.08,-0.24 -16.53,-3.18"
         id="path90" />
      <path
         stroke="#b2c8d9"
         vector-effect="non-scaling-stroke"
         d="m 382.95,366.32 q -1.07,4.18 -3.18,8.68 -2.33,4.99 -7.09,8.22 -0.63,0.43 -0.93,0.93"
         id="path91" />
      <path
         stroke="#6c8daa"
         vector-effect="non-scaling-stroke"
         d="m 371.75,384.15 q -0.24,-0.03 -0.52,-0.02 -0.24,0 -0.47,0.14 c -7.55,4.41 -12.52,6.07 -20.01,6.16 q -9.75,0.13 -19.5,-0.1 c -3.08,-0.07 -5.7,-3.17 -8.65,-5.94 q -13.15,-12.3 -25.25,-24.74"
         id="path92" />
      <path
         stroke="#4b7690"
         vector-effect="non-scaling-stroke"
         d="m 723.07,708.27 -0.16,-0.9"
         id="path93" />
      <path
         stroke="#809dab"
         vector-effect="non-scaling-stroke"
         d="m 722.91,707.37 c 1.7,-19.42 -10.31,-26.17 -22.03,-37.99 -8.89,-8.97 -23.87,-22.67 -35.93,-34.61 -9.19,-9.1 -19.73,-18.9 -27.94,-26.92 Q 611.88,583.3 586.4,559.11"
         id="path94" />
      <path
         stroke="#225171"
         vector-effect="non-scaling-stroke"
         d="m 586.4,559.11 q 0.5,-0.61 -1.02,-1.81"
         id="path95" />
      <path
         stroke="#01314a"
         vector-effect="non-scaling-stroke"
         d="m 437.79,713.13 q -1.33,0.5 -2.08,1.6 -0.07,0.1 -0.63,0.38 -0.24,0.12 -0.33,-0.08 -0.23,-0.5 -0.71,-0.27 c -1.58,0.75 -2.81,1.17 -3.79,2.76 -1.03,1.68 -1.97,3.14 -3.45,4.56 q -4.81,4.57 -9.36,9.4 c -1.41,1.5 -3.3,2.27 -4.75,4.03 q -2.13,2.58 -3.01,3.4 c -3.04,2.79 -4.82,5.88 -8.41,8.9 -1.81,1.53 -2.33,3.26 -2.94,5.42 a 0.84,0.82 2.7 0 1 -0.66,0.59 l -0.94,0.16 q -0.36,0.06 -0.4,-0.3 l -0.21,-1.89"
         id="path96" />
      <path
         stroke="#059cd9"
         vector-effect="non-scaling-stroke"
         d="m 590.11,737.04 -0.22,2.35 a 0.6,0.59 3.1 0 1 -0.61,0.54 c -10.14,-0.29 -19.4,-0.14 -30.53,0.22 q -15.99,0.5 -73.75,0.3 -24.13,-0.09 -48.25,-0.11 -2.56,0 -3.7,-1.64"
         id="path97" />
      <path
         stroke="#047aaa"
         vector-effect="non-scaling-stroke"
         d="m 436.89,715.84 q -0.95,3.87 -2.32,9.41 -0.74,3.05 -1.52,13.45"
         id="path98" />
      <path
         stroke="#025c87"
         vector-effect="non-scaling-stroke"
         d="m 433.05,738.7 q -1.69,12.79 -0.25,25.04"
         id="path99" />
      <path
         stroke="#809dab"
         vector-effect="non-scaling-stroke"
         d="m 432.8,763.74 q -0.22,0.13 -0.17,1.5 0.78,19.89 6.18,39.05"
         id="path100" />
      <path
         stroke="#047aaa"
         vector-effect="non-scaling-stroke"
         d="m 438.81,804.29 q -0.1,0.85 0.09,1.58 3,11.63 7.59,22.19"
         id="path101" />
      <path
         stroke="#025c87"
         vector-effect="non-scaling-stroke"
         d="m 446.49,828.06 q 4.59,11 10.69,20.85"
         id="path102" />
      <path
         stroke="#b2c8d9"
         vector-effect="non-scaling-stroke"
         d="m 382.98,275.99 q -18.38,19.57 -38.01,37.57 c -3.66,3.35 -9.25,1.99 -13.63,3.91 q -2.13,0.94 -3.51,2.1 -15.02,12.61 -28.46,26.5 a 2.37,2.36 62.5 0 0 -0.63,2.02 q 0.83,5.18 -1.39,11.56"
         id="path103" />
      <path
         stroke="#89a3ba"
         vector-effect="non-scaling-stroke"
         d="M 297.35,359.65 C 296.54,352 296.18,344.68 286.79,344.5"
         id="path104" />
      <path
         stroke="#89a3ba"
         vector-effect="non-scaling-stroke"
         d="m 371.75,384.15 2.21,2.84"
         id="path105" />
      <path
         stroke="#6c8daa"
         vector-effect="non-scaling-stroke"
         d="m 373.96,386.99 q 0.05,0.63 -0.25,1 -5.56,6.78 -12.61,13.5"
         id="path106" />
      <path
         stroke="#517396"
         vector-effect="non-scaling-stroke"
         d="m 361.1,401.49 -11.75,5.74"
         id="path107" />
      <path
         stroke="#224764"
         vector-effect="non-scaling-stroke"
         d="m 349.35,407.23 q -0.71,-0.23 -1.91,-0.09 -1.29,0.14 -1.88,0.13 -14.16,-0.06 -28.3,-0.06 -6.16,0 -9.2,3.76"
         id="path108" />
      <path
         stroke="#224764"
         vector-effect="non-scaling-stroke"
         d="m 304.12,419.16 q -3.36,-1.92 -5.83,-5.02"
         id="path109" />
      <path
         stroke="#225171"
         vector-effect="non-scaling-stroke"
         d="M 298.29,414.14 272.17,387.5"
         id="path110" />
      <path
         stroke="#01314a"
         vector-effect="non-scaling-stroke"
         d="m 298.29,414.14 q -2.8,2.05 -3.18,3.23 -0.53,1.62 -1.78,2.55 -2.24,1.67 -2.36,1.79 c -3.1,3.29 -6.56,10.41 -12.04,5.37 q -4.98,-4.59 -9.97,-9.16 c -4.6,-4.23 -9.09,-9.23 -13.75,-13.78 q -1.7,-1.66 -4.06,-4.61 c -2.35,-2.94 -5.71,-4.72 -7.47,-7.51 a 1.65,1.65 0 0 0 -2.59,-0.26 q -0.37,0.39 -1.56,0.4"
         id="path111" />
      <path
         stroke="#025c87"
         vector-effect="non-scaling-stroke"
         d="m 564.84,849.51 q 6.05,-10.42 10.7,-21.36"
         id="path112" />
      <path
         stroke="#047aaa"
         vector-effect="non-scaling-stroke"
         d="m 575.54,828.15 q 5.04,-11.5 8.37,-23.75"
         id="path113" />
      <path
         stroke="#809dab"
         vector-effect="non-scaling-stroke"
         d="m 583.91,804.4 q 5.55,-20.15 6.67,-40.75"
         id="path114" />
      <path
         stroke="#025c87"
         vector-effect="non-scaling-stroke"
         d="m 590.58,763.65 q 0.66,-13.55 -0.47,-26.61"
         id="path115" />
      <path
         stroke="#047aaa"
         vector-effect="non-scaling-stroke"
         d="m 590.11,737.04 -3.79,-22.03"
         id="path116" />
      <path
         stroke="#01314a"
         vector-effect="non-scaling-stroke"
         d="m 627.53,756.32 q -2.52,-0.16 -3.44,-2.07 c -1.64,-3.42 -3.47,-6.41 -5.06,-9.05 q -1.64,-2.72 -4.05,-4.82 c -1.26,-1.11 -1.9,-2.23 -2.84,-3.53 -2.19,-3.01 -5.25,-5.58 -7.67,-8.47 q -1.29,-1.53 -4.02,-4.16 -2.09,-2.02 -3.76,-4.44 -1.15,-1.67 -2.93,-3.08 -2.75,-2.18 -4.48,-5.28 a 1.31,1.28 84.5 0 0 -0.69,-0.58 l -3.9,-1.4"
         id="path117" />
      <path
         stroke="#6c8daa"
         vector-effect="non-scaling-stroke"
         d="m 465.98,477.19 q -6.46,5.52 -12.91,13.39"
         id="path118" />
      <path
         stroke="#7a98b5"
         vector-effect="non-scaling-stroke"
         d="m 453.07,490.58 q -1.61,0.93 -2.57,-0.08 c -3.51,-3.65 -6.74,-7.76 -10.26,-11.1 -14.33,-13.59 -27.2,-25.56 -42.24,-41.46 -7.03,-7.43 -14.53,-14.66 -21.76,-22.04 q -3.75,-3.83 -7.48,-7.28 -3.85,-3.56 -7.66,-7.13"
         id="path119" />
      <path
         stroke="#517396"
         vector-effect="non-scaling-stroke"
         d="m 453.07,490.58 q -1.76,2.65 -4.69,3.26 c -1.93,0.4 -5.21,0.5 -7.88,0.38 q -1.59,-0.07 -2.73,0.7 a 1.19,1.19 0 0 1 -1.82,-0.73 q -0.28,-1.28 -1.95,-0.92"
         id="path120" />
      <path
         stroke="#30536e"
         vector-effect="non-scaling-stroke"
         d="m 434,493.27 q -36.33,-36.91 -72.92,-73.6 -5.65,-5.66 -11.73,-12.44"
         id="path121" />
      <path
         stroke="#a1b3c5"
         vector-effect="non-scaling-stroke"
         d="m 586.4,559.11 -3.88,3"
         id="path122" />
      <path
         stroke="#89a3ba"
         vector-effect="non-scaling-stroke"
         d="m 582.52,562.11 q -0.83,1.64 -1.91,2.75 -3.63,3.74 -9.68,8.85"
         id="path123" />
      <path
         stroke="#6c8daa"
         vector-effect="non-scaling-stroke"
         d="m 570.93,573.71 -16.4,15.7"
         id="path124" />
      <path
         stroke="#517396"
         vector-effect="non-scaling-stroke"
         d="m 554.53,589.41 q -0.2,0.1 -0.15,1.14 0.03,0.49 -0.31,0.84 c -3.02,3.15 -3.9,5.46 -2.59,9.82 a 1.46,1.45 48.1 0 1 -0.05,0.98 q -0.68,1.66 -0.24,3.31"
         id="path125" />
      <path
         stroke="#7a98b5"
         vector-effect="non-scaling-stroke"
         d="m 677.87,731.63 q -1.15,-3.43 -1.11,-4.62 0.05,-1.26 -0.6,-4.77 -0.44,-2.34 0.39,-6.2 0.11,-0.51 -0.11,-0.99 -0.6,-1.29 -0.37,-2.67 a 2.95,2.95 0 0 0 -0.59,-2.3 q -2.02,-2.55 -4.55,-5.25 -4.91,-5.22 -10.09,-10.17 -8.92,-8.52 -8.96,-8.56 c -29.31,-28.67 -58.3,-57.7 -87.35,-86.63 q -5.01,-4.99 -10,-10.06"
         id="path126" />
      <path
         stroke="#cad9e4"
         vector-effect="non-scaling-stroke"
         d="m 722.91,707.37 c -1.63,-0.67 -3.13,-1.82 -3.74,-3.62 -1.1,-3.24 -1.5,-6.87 -2.79,-9.68 -4.26,-9.32 -13.61,-14.02 -19.98,-19.87"
         id="path127" />
      <path
         stroke="#e7eff4"
         vector-effect="non-scaling-stroke"
         d="m 696.4,674.2 q -10.31,-10.46 -20.84,-20.76 -4.44,-4.35 -11.88,-12.17 -12.13,-12.77 -28.57,-27.88 -9.83,-9.03 -34.3,-33.42 -1.41,-1.4 -9.37,-8.66 -4.71,-4.3 -8.92,-9.2"
         id="path128" />
      <path
         stroke="#81bedb"
         vector-effect="non-scaling-stroke"
         d="M 590.58,763.65 432.8,763.74"
         id="path129" />
      <path
         stroke="#83ddfe"
         vector-effect="non-scaling-stroke"
         d="m 583.91,804.4 q -72.55,0.4 -144.66,0.3 -0.31,0 -0.44,-0.41"
         id="path130" />
      <path
         stroke="#059cd9"
         vector-effect="non-scaling-stroke"
         d="M 575.54,828.15 446.49,828.06"
         id="path131" />
      <path
         stroke="#b2c8d9"
         vector-effect="non-scaling-stroke"
         d="m 696.4,674.2 c -4.81,-0.28 -17.87,4.13 -21.37,1.02 -17.44,-15.51 -33.68,-33.04 -53.39,-51.71 -10.96,-10.39 -21.75,-21.38 -32.74,-31.96 -5.42,-5.23 -11.77,-12.05 -17.97,-17.84"
         id="path132" />
      <path
         stroke="#ba92af"
         vector-effect="non-scaling-stroke"
         d="m 482.13,657.64 -22.5,21.49 q -0.92,0.87 0.35,0.87 h 106.99 q 0.88,0 0.24,-0.61 l -22.62,-21.56"
         id="path133" />
      <path
         stroke="#e9a3bd"
         vector-effect="non-scaling-stroke"
         d="m 544.59,657.83 -30.05,-30.62 a 1.51,1.5 -44.9 0 0 -2.13,0 l -30.28,30.43"
         id="path134" />
      <path
         stroke="#a4356d"
         vector-effect="non-scaling-stroke"
         d="m 544.59,657.83 q -9.03,0.41 -17.57,0.28 -11.39,-0.16 -17.55,-0.09 -13.41,0.16 -27.34,-0.38"
         id="path135" />
      <path
         stroke="#cad9e4"
         vector-effect="non-scaling-stroke"
         d="m 681.43,706.9 q -1.88,1.38 -0.4,3.59 2.63,3.94 5.8,6.51 3.87,3.16 7.67,3.44 c 5.64,0.41 7.99,-3.24 10.89,-7.48 q 1.45,-2.13 1.64,-4.02 0.24,-2.54 -0.5,-4.6"
         id="path136" />
      <path
         stroke="#4b6d83"
         vector-effect="non-scaling-stroke"
         d="m 706.53,704.34 q 0.15,-0.26 0.61,-0.08 a 0.69,0.69 0 0 0 0.9,-0.88 q -0.69,-1.89 -1.83,-3.25 c -2.66,-3.2 -9.03,-2.46 -10.63,-5.97 -1.33,-2.95 -2.82,-6.18 -5.95,-7.23 -3.98,-1.35 -8.48,1.02 -11.68,3.55 -5.96,4.73 -5.62,15.16 3.48,16.42"
         id="path137" />
      <path
         stroke="#80939e"
         vector-effect="non-scaling-stroke"
         d="m 706.53,704.34 q -3.14,-3.42 -6.92,-5.43 c -5.18,-2.75 -10.22,3.82 -12.07,7.66 a 1.88,1.87 -72.1 0 1 -2.02,1.04 l -4.09,-0.71"
         id="path138" />
    </g>
    <path
       fill="#013a57"
       d="m 285.11925,6.3792463 q -4.38,7.6099997 -7.4,15.6999997 -5.91,11.88 -7.64,24.15 -2.6,10.9 -4.57,22.2 -1.6,9.17 -1.66,18.53 -1.31,8.41 -0.82,16.270004 0.25,4.05 1.02,7 0.96,11.78 2.17,18.94 0.29,1.71 1.35,4.17 0.28,2.61 0.89,5.07 3.89,15.78 9.72,30.01 5.84,14.14 12.77,25.45 6.96,12.29 14.95,21.86 c 10.85,14.35 23.2,26.96 35.66,39.69 a 0.91,0.91 0 0 0 1.3,0.01 c 12.44,-12.62 25.73,-25.81 35.75,-40.56 q 8.67,-9.98 14.6,-21.78 7.44,-12.02 12.75,-24.75 7.03,-17.57 11.08,-35.03 l 3.67,-23.25 q 1.16,-11.430004 0.62,-22.420004 -0.49,-2.1 -0.5,-4.65 c -0.04,-11.97 -3.09,-25.29 -6.2,-36.89 l -7.53,-23.45 c -2.48,-5.62 -4.51,-10.94 -7.88,-15.9499997 q 0.42,-0.4 0.95,-0.39 15.66,0.42 37.5,-0.15 1.66,-0.04 1.99,0.72 c 9.67,23.1899997 15.02,43.0599997 17.43,65.2899997 q 4.29,39.560004 -7.12,78.340004 -4.64,15.76 -12.48,33.96 c -15.89,36.92 -41.26,66.39 -70.53,93.49 q -1.71,1.58 -0.22,3.35 4.6,5.47 8.01,8.77 0.33,0.31 -0.01,0.6 -5.41,4.61 -10.51,9.55 c -48.29,46.76 -96.35,93.79 -144.99,140.12 q -7.05,6.72 -14.39,13.89 c -20.1,19.64 -40.38,39 -60.85,58.24 q -10.19,9.58 -10.44,22.91 l -0.4,2.67 q -12.1,10.54 -28.29,6.53 -3.86,-31.19 18.44,-52.29 25.13,-23.78 39.87,-38.25 c 31.94,-31.36 64.28,-62.25 95.92,-93.94 q 0.47,-0.46 1.02,-1.79 l 2.23,1.59 a 2.24,2.24 0 0 0 2.98,-0.35 c 4.86,-5.53 9.96,-11.95 16.02,-16.44 q 0.54,-0.39 0.68,-0.83 0.22,-0.63 -0.06,-1.14 1.25,-0.17 1.68,-0.6 6.26,-6.19 12.54,-12.36 12.58,-12.36 24.68,-24 1.25,-1.2 0.04,-2.43 l -8.78,-8.95 q -1.44,-0.52 -1.54,-2.04 l 9.06,-9.16 a 0.74,0.74 0 0 0 0,-1.05 q -15.47,-15.29 -30.24,-31.41 c -23.51,-25.65 -41.92,-55.59 -52.73,-88.73 -1.98,-6.04 -3.45,-12.8 -5,-19.25 q -1.8,-7.46 -2.83,-14.63 -1.94,-13.41 -2.18,-17.62 -0.75,-13.270004 1.03,-36.760004 2.41,-31.86 17.37,-65.4299997 l 39.58,-0.88 q 0.29,0 0.39,0.26 0.08,0.18 0.08,0.27 z"
       id="path140" />
    <path
       fill="#07bafc"
       d="m 399.21925,6.6992463 c 3.37,5.0099997 5.4,10.3299997 7.88,15.9499997 q -1.8,0.5 -5.68,0.5 -61.38,0 -122.75,0.04 -1.36,0.01 -0.95,-1.11 3.02,-8.09 7.4,-15.6999997 0.6,0.02 0.8,-0.24 55.25,0.08 110.5,-0.24 0.97,0 2.8,0.8 z"
       id="path141" />
    <path
       fill="#ffffff"
       d="m 245.06925,6.7292463 q -14.96,33.5699997 -17.37,65.4299997 -1.78,23.49 -1.03,36.760004 0.24,4.21 2.18,17.62 1.03,7.17 2.83,14.63 c 1.55,6.45 3.02,13.21 5,19.25 10.81,33.14 29.22,63.08 52.73,88.73 q 14.77,16.12 30.24,31.41 a 0.74,0.74 0 0 1 0,1.05 l -9.06,9.16 q -6.53,-3.35 -11.75,-8.84 -5.74,-6.03 -5.8,-6.09 c -20.58,-19.83 -40.31,-40.5 -60.87,-60.32 q -9.43,-9.09 -18.3,-18.28 1.39,-6.18 1.37,-12.3 -0.07,-25.22 0.3,-75.41 0.01,-1.3 -1.64,-2.62 -0.53,-4.66 -5.09,-7.330004 c -5.93,-3.48 -10.2,0.840004 -14.01,4.720004 q -12.57,12.81 -25.66,25.09 -4.61,4.33 -7.18,4.7 c -4.28,0.61 -7,1.75 -10.19,5.02 -10.6,10.85 -21.11,21.76 -31.81,32.52 q -1.13,1.15 -2.25,3.79 -6.76,3.65 -6.89,10.99 -0.05,3.34 0.23,16.01 c 0.15,6.62 -2.72,11.71 -7.96,16 q -1.28,-1.2 -4.000004,-5.17 -3.37,-4.93 -9.9,-5.06 -3.09,-0.06 -4.8,1.42 -4.4,3.79 -13.94,13.47 c -5.48,5 -4.08,11.31 0.81,16.01 q 17.97,17.26 35.210004,35.29 c 3.83,4.01 9.48,5.28 14.36,2.46 4.67,-2.7 9.02,-8.32 12.83,-12.2 q 5.77,-5.88 1.38,-14.56 -0.21,-4.9 3.94,-8.19 4.6,-2.59 7.98,0.98 c 37.07,39.08 75.4,77.03 113.16,115.45 q -0.55,1.33 -1.02,1.79 c -31.64,31.69 -63.98,62.58 -95.92,93.94 q -14.74,14.47 -39.87,38.25 -22.3,21.1 -18.44,52.29 c 2.7,20.86 16.14,40.91 36.55,47.59 20.84,6.82 42.62,3.58 59.27,-10.95 6.09,-5.31 13.46,-13.52 19.39,-19.35 41.45,-40.79 82.7,-81.81 124.1,-122.65 a 0.81,0.81 0 0 1 1.14,0.01 q 54.48,54.05 108.23,108.17 c 8.82,8.88 19.74,20.37 29.82,30.34 14.32,14.14 34.12,20.27 53.75,16.83 25.15,-4.41 42.1,-24.39 45.69,-49.18 q 2.2,-17.55 -3.74,-32.16 -4.54,-11.16 -15.16,-21.57 -47.17,-46.26 -94.66,-92.2 c -10.3,-9.96 -21.38,-21.31 -32.28,-31.79 l -7.61,-7.95 a 0.8,0.8 0 0 1 0.07,-1.17 q 5.49,-4.63 10.69,-9.75 c 24.52,-24.17 49.68,-47.69 74.27,-71.77 a 1.45,1.45 0 0 1 1.45,-0.35 c 13.44,4.27 26.73,4.36 40.58,2.38 q 11.62,-1.66 22.01,-7.09 27.88,-14.56 38.59,-44.06 3.97,-10.96 4.28,-14.92 0.37,-4.93 0.69,-9.84 0.95,-14.45 -2.19,-28.42 -2.13,-9.72 -7.64,-17.72 a 0.62,0.63 49.8 0 0 -0.96,-0.08 l -50.21,51.79 q -0.65,0.67 -1.7,0.67 l -16.38,0.06 a 1.1,1.11 67.3 0 1 -0.77,-0.31 l -21.58,-20.2 a 1.45,1.45 0 0 1 -0.46,-1.06 l -0.09,-19.56 q 0,-0.97 0.64,-1.71 3.07,-3.57 6.15,-6.86 19.38,-20.71 39.18,-41.03 0.6,-0.62 0.86,-0.96 a 1.37,1.37 0 0 0 -0.5,-2.06 c -13.24,-6.39 -28.14,-7 -42.42,-5.02 -21.58,3 -42.57,15.01 -55.31,32.69 q -13.72,19.05 -15.91,42.54 -0.8,8.56 0.82,22.67 l -0.4,2.53 q -0.08,0.49 -0.39,0.87 -0.69,0.85 -0.62,1.96 0.03,0.5 -0.2,0.94 -1.23,2.47 -1.73,3.07 -11.4,13.61 -17.7,19.28 -5.8,5.21 -10.92,11.08 c -0.67,0.76 -1.65,1.35 -2.26,2.07 -4.34,5.21 -10.65,11.08 -13.97,14.5 -9.13,9.43 -17.45,17.85 -27.05,28.51 q -10.09,11.2 -20.96,21.67 -22.5,21.67 -44.63,43.72 c -15.54,15.48 -32.06,29.92 -47.48,45.49 -7.15,7.21 -14.54,14.26 -21.77,21.42 -8.08,7.99 -16.73,15.68 -26.18,24.81 q -19.58,18.92 -39.08,37.93 -4.18,4.08 -8.55,7.95 -4.29,3.8 -7.24,7.3 -8.15,6.91 -15.11,13.59 c -5.61,5.38 -7.26,12.06 -10.35,18.87 a 0.65,0.65 0 0 1 -1.24,-0.24 l -0.06,-1.45 q -0.02,-0.66 -0.21,-0.03 -0.28,0.91 -0.81,1.96 -0.13,0.26 -0.33,0.36 -0.47,0.24 -0.48,-0.29 -0.01,-0.53 -0.24,-1.07 0.25,-13.33 10.44,-22.91 c 20.47,-19.24 40.75,-38.6 60.85,-58.24 q 7.34,-7.17 14.39,-13.89 c 48.64,-46.33 96.7,-93.36 144.99,-140.12 q 5.1,-4.94 10.51,-9.55 0.34,-0.29 0.01,-0.6 -3.41,-3.3 -8.01,-8.77 -1.49,-1.77 0.22,-3.35 c 29.27,-27.1 54.64,-56.57 70.53,-93.49 q 7.84,-18.2 12.48,-33.96 11.41,-38.78 7.12,-78.340004 c -2.41,-22.23 -7.76,-42.1 -17.43,-65.2899997 q 43.35,0.18 86.26,0.26 c 11.6,0.02 24.5,2.7 36.93,6.4999997 21.29,6.49 40.75,17.52 57.84,31.76 32.97,27.47 52.9,66.920004 57.99,109.310004 q 0.9,7.56 0.94,19.96 0.52,172.75 0.13,345.5 -0.02,12.03 -1.12,19.94 c -6.49,47.01 -32.03,91.8 -72.79,117.33 -21.9,13.72 -46.31,22.6 -72.17,23.57 q -1.29,0.04 -20,0.02 -54.04,-0.08 -75.75,-0.18 -0.35,0 -0.66,-0.47 c 9.26,-19.98 16.4,-41.87 18.98,-63.82 0.75,-6.32 1.95,-12.79 2.12,-18.89 q 0.16,-5.28 0.09,-10.43 l -0.06,-13.71 a 1.25,1.26 23.6 0 0 -0.33,-0.85 c -14.29,-15.88 -29.75,-30.53 -45.06,-45.47 a 0.54,0.53 29.8 0 0 -0.89,0.24 q -0.22,0.78 0.09,1.79 1.74,5.59 3.41,11.12 l 1.63,5.57 q -0.23,0.85 -1.82,0.86 -73.67,0.32 -147.61,-0.03 l 0.9,-2.71 q 1.73,-8.24 4.98,-15.28 0.81,-1.77 -0.61,-0.44 c -15.75,14.6 -30.87,29.88 -45.62,45.49 a 1.26,1.24 67 0 0 -0.34,0.86 l -0.08,8.03 c -0.48,16.58 -0.2,29.07 2.83,44.1 3.72,18.41 9.06,36.33 17.07,53.41 q 0.16,0.24 0,0.41 -0.11,0.11 -0.34,0.11 -31.21,0.22 -62.43,0.35 c -27.5,0.11 -46.27,0.46 -69.99,-7.74 -32.750004,-11.31 -62.170004,-33.3 -80.640004,-62.82 -13.71,-21.91 -22.78,-46.61 -25.9199997,-72.16 q -0.95,-7.67 -0.94,-19.95 c 0.04,-114.83 -0.18,-229.66 0.02,-344.49 q 0.02,-11.74 1.08,-19.96 c 5.2599997,-40.75 23.5199997,-79.000004 54.9499997,-105.980004 25.92,-22.25 58.480004,-37.39 92.450004,-40.4899997 q 6.54,-0.59 19.99,-0.59 30.38,0 60.75,-0.22 4.42,-0.03 9.15,0.04 z m 67.98,481.8300037 -22.5,21.49 q -0.92,0.87 0.35,0.87 h 106.99 q 0.88,0 0.24,-0.61 l -22.62,-21.56 -30.05,-30.62 a 1.5,1.51 45.1 0 0 -2.13,0 z"
       id="path142"
       style="stroke:#18181b" />
    <path
       fill="#027db6"
       d="m 277.71925,22.079246 q -0.41,1.12 0.95,1.11 61.37,-0.04 122.75,-0.04 3.88,0 5.68,-0.5 l 7.53,23.45 -144.55,0.13 q 1.73,-12.27 7.64,-24.15 z"
       id="path143" />
    <path
       fill="#ffffff"
       d="m 270.07925,46.229246 144.55,-0.13 c 3.11,11.6 6.16,24.92 6.2,36.89 q 0.01,2.55 0.5,4.65 -76.63,-0.35 -152.91,-0.21 -1.29,0 -4.57,-0.47 0.06,-9.36 1.66,-18.53 1.97,-11.3 4.57,-22.2 z"
       id="path144" />
    <path
       fill="#07bafc"
       d="m 263.84925,86.959246 q 3.28,0.47 4.57,0.47 76.28,-0.14 152.91,0.21 0.54,10.99 -0.62,22.420004 l -156.66,0.17 q -0.77,-2.95 -1.02,-7 -0.49,-7.860004 0.82,-16.270004 z"
       id="path145" />
    <path
       fill="#cfdee9"
       d="m 213.89925,106.90925 q -18.38,19.57 -38.01,37.57 c -3.66,3.35 -9.25,1.99 -13.63,3.91 q -2.13,0.94 -3.51,2.1 -15.02,12.61 -28.46,26.5 a 2.37,2.36 62.5 0 0 -0.63,2.02 q 0.83,5.18 -1.39,11.56 c -0.81,-7.65 -1.17,-14.97 -10.56,-15.15 q 1.12,-2.64 2.25,-3.79 c 10.7,-10.76 21.21,-21.67 31.81,-32.52 3.19,-3.27 5.91,-4.41 10.19,-5.02 q 2.57,-0.37 7.18,-4.7 13.09,-12.28 25.66,-25.09 c 3.81,-3.88 8.08,-8.200004 14.01,-4.720004 q 4.56,2.670004 5.09,7.330004 z"
       id="path146" />
    <path
       fill="#95b2c9"
       d="m 213.89925,106.90925 q 1.65,1.32 1.64,2.62 -0.37,50.19 -0.3,75.41 0.02,6.12 -1.37,12.3 -1.07,4.18 -3.18,8.68 -2.33,4.99 -7.09,8.22 -0.63,0.43 -0.93,0.93 -0.24,-0.03 -0.52,-0.02 -0.24,0 -0.47,0.14 c -7.55,4.41 -12.52,6.07 -20.01,6.16 q -9.75,0.13 -19.5,-0.1 c -3.08,-0.07 -5.7,-3.17 -8.65,-5.94 q -13.15,-12.3 -25.25,-24.74 2.22,-6.38 1.39,-11.56 a 2.37,2.36 62.5 0 1 0.63,-2.02 q 13.44,-13.89 28.46,-26.5 1.38,-1.16 3.51,-2.1 c 4.38,-1.92 9.97,-0.56 13.63,-3.91 q 19.63,-18 38.01,-37.57 z"
       id="path147" />
    <path
       fill="#027db6"
       d="m 420.70925,110.05925 -3.67,23.25 -149.47,0.03 q -1.06,-2.46 -1.35,-4.17 -1.21,-7.16 -2.17,-18.94 z"
       id="path148" />
    <path
       fill="#013a57"
       d="m 619.79925,174.73925 q -2.83,-0.56 -3.32,1.33 c -0.69,2.73 -2.01,5.06 -2.59,7.73 -1.38,6.3 -4.12,11.97 -5.97,17.77 -6.56,20.63 -20.12,36.02 -40.83,44.37 -5.53,2.23 -13.8,4.49 -20.42,4.87 q -20.41,1.18 -39.6,-7.08 3.72,-4.41 3.97,-10.75 c 0.76,-19.56 -26.77,-25.71 -34.64,-7.38 -1.17,2.74 -2.13,5.66 -4.14,7.79 q -2.99,3.18 -6.5,4.71 c -5.79,-9.49 -10.31,-18.73 -12.24,-29.51 q -1.62,-14.11 -0.82,-22.67 2.19,-23.49 15.91,-42.54 c 12.74,-17.68 33.73,-29.69 55.31,-32.69 14.28,-1.98 29.18,-1.37 42.42,5.02 a 1.37,1.37 0 0 1 0.5,2.06 q -0.26,0.34 -0.86,0.96 -19.8,20.32 -39.18,41.03 -3.08,3.29 -6.15,6.86 -0.64,0.74 -0.64,1.71 l 0.09,19.56 a 1.45,1.45 0 0 0 0.46,1.06 l 21.58,20.2 a 1.1,1.11 67.3 0 0 0.77,0.31 l 16.38,-0.06 q 1.05,0 1.7,-0.67 l 50.21,-51.79 a 0.62,0.63 49.8 0 1 0.96,0.08 q 5.51,8 7.64,17.72 z"
       id="path149" />
    <path
       fill="#ffffff"
       d="m 417.03925,133.30925 q -4.05,17.46 -11.08,35.03 l -127.78,0.08 q -5.83,-14.23 -9.72,-30.01 -0.61,-2.46 -0.89,-5.07 z"
       id="path150" />
    <path
       fill="#d3467b"
       d="m 405.95925,168.33925 q -5.31,12.73 -12.75,24.75 -43.56,-0.27 -86.79,-0.15 -10.05,0.03 -15.47,0.93 -6.93,-11.31 -12.77,-25.45 z"
       id="path151" />
    <path
       fill="#01273c"
       d="m 619.79925,174.73925 q 3.14,13.97 2.19,28.42 -0.32,4.91 -0.69,9.84 -0.31,3.96 -4.28,14.92 -10.71,29.5 -38.59,44.06 -10.39,5.43 -22.01,7.09 c -13.85,1.98 -27.14,1.89 -40.58,-2.38 a 1.45,1.45 0 0 0 -1.45,0.35 c -24.59,24.08 -49.75,47.6 -74.27,71.77 q -5.2,5.12 -10.69,9.75 a 0.8,0.8 0 0 0 -0.07,1.17 l 7.61,7.95 c -0.99,5.75 -4.14,5.08 -6.84,8.77 -3.25,4.45 -6.37,7.16 -9.68,10.67 -1.32,1.4 -2.38,1.38 -4.15,1.1 l -8.39,-7.16 q -1.06,-0.9 -2.05,0.07 l -39.36,38.49 q -0.55,0.54 -0.01,1.09 l 15.62,15.71 126.68,126.13 q 10.17,7.15 24.17,3.82 c 12.78,-3.03 20.56,-14.26 21.03,-27.18 q 0.76,-0.69 0.53,-1.87 0,-0.02 -0.02,-0.02 -0.46,-0.11 0.13,0.01 a 0.08,0.08 0 0 1 0.06,0.1 q -0.57,2.22 0.12,4.15 1.06,2.97 1.19,3.4 c 2.2,7.17 13.1,2.68 18.36,1.89 2.32,-0.36 5.5,-1.35 8.45,-1.45 -3.59,24.79 -20.54,44.77 -45.69,49.18 -19.63,3.44 -39.43,-2.69 -53.75,-16.83 -10.08,-9.97 -21,-21.46 -29.82,-30.34 q -53.75,-54.12 -108.23,-108.17 a 0.81,0.81 0 0 0 -1.14,-0.01 c -41.4,40.84 -82.65,81.86 -124.1,122.65 -5.93,5.83 -13.3,14.04 -19.39,19.35 -16.65,14.53 -38.43,17.77 -59.27,10.95 -20.41,-6.68 -33.85,-26.73 -36.55,-47.59 q 16.19,4.01 28.29,-6.53 c 1.41,13.64 10.22,26.81 24.25,28.74 5.53,0.76 11.67,0.35 17.52,-1.79 q 4.17,-2.16 7.49,-5.59 c 23.49,-24.29 48.83,-46.7 72.62,-70.67 6.49,-6.54 13.55,-12.98 20.24,-19.59 15.49,-15.3 34.58,-32.75 46.07,-43.81 q 15.51,-14.93 25.63,-24.39 c 8.32,-7.78 16.26,-15.65 24.45,-23.39 19,-17.96 37.57,-35.53 56.04,-53.58 q 18.08,-17.67 36.58,-34.91 c 9.34,-8.71 18.24,-17.72 27.43,-26.72 q 0.51,-0.5 0.12,-1.1 c -0.97,-1.52 -5.76,-4.04 -7.39,-5.02 a 1.29,1.29 0 0 1 -0.39,-1.84 l 1.38,-2.01 1.57,-1.54 q 2.14,0.11 4.42,0.28 9.73,0.72 15.49,-6.58 0.2,-0.41 0.39,-0.82 19.19,8.26 39.6,7.08 c 6.62,-0.38 14.89,-2.64 20.42,-4.87 20.71,-8.35 34.27,-23.74 40.83,-44.37 1.85,-5.8 4.59,-11.47 5.97,-17.77 0.58,-2.67 1.9,-5 2.59,-7.73 q 0.49,-1.89 3.32,-1.33 z"
       id="path152" />
    <path
       fill="#43678b"
       d="m 117.70925,175.41925 c 9.39,0.18 9.75,7.5 10.56,15.15 q 12.1,12.44 25.25,24.74 c 2.95,2.77 5.57,5.87 8.65,5.94 q 9.75,0.23 19.5,0.1 c 7.49,-0.09 12.46,-1.75 20.01,-6.16 q 0.23,-0.14 0.47,-0.14 0.28,-0.01 0.52,0.02 l 2.21,2.84 q 0.05,0.63 -0.25,1 -5.56,6.78 -12.61,13.5 l -11.75,5.74 q -0.71,-0.23 -1.91,-0.09 -1.29,0.14 -1.88,0.13 -14.16,-0.06 -28.3,-0.06 -6.16,0 -9.2,3.76 -4.15,3.29 -3.94,8.19 -3.36,-1.92 -5.83,-5.02 l -26.12,-26.64 c 5.24,-4.29 8.11,-9.38 7.96,-16 q -0.28,-12.67 -0.23,-16.01 0.13,-7.34 6.89,-10.99 z"
       id="path153" />
    <path
       fill="#75245e"
       d="m 393.20925,193.08925 q -5.93,11.8 -14.6,21.78 -2.54,0.62 -4.44,0.63 -33.85,0.06 -68.27,0.23 -7.99,-9.57 -14.95,-21.86 5.42,-0.9 15.47,-0.93 43.23,-0.12 86.79,0.15 z"
       id="path154" />
    <path
       fill="#cfdee9"
       d="m 213.86925,197.23925 q 8.87,9.19 18.3,18.28 c 20.56,19.82 40.29,40.49 60.87,60.32 q 0.06,0.06 5.8,6.09 5.22,5.49 11.75,8.84 0.1,1.52 1.54,2.04 l -15.23,15.3 q -16.25,-15.09 -31.62,-30.96 c -5.57,-5.76 -12.14,-11.39 -18.04,-17.3 -13.83,-13.86 -27.44,-27.12 -41.57,-41.77 q -0.45,-0.47 -0.79,-0.17 l -2.21,-2.84 q 0.3,-0.5 0.93,-0.93 4.76,-3.23 7.09,-8.22 2.11,-4.5 3.18,-8.68 z"
       id="path155" />
    <path
       fill="#013a57"
       d="m 103.08925,218.41925 26.12,26.64 q -2.8,2.05 -3.18,3.23 -0.53,1.62 -1.78,2.55 -2.24,1.67 -2.36,1.79 c -3.1,3.29 -6.56,10.41 -12.04,5.37 q -4.98,-4.59 -9.970004,-9.16 c -4.6,-4.23 -9.09,-9.23 -13.75,-13.78 q -1.7,-1.66 -4.06,-4.61 c -2.35,-2.94 -5.71,-4.72 -7.47,-7.51 a 1.65,1.65 0 0 0 -2.59,-0.26 q -0.37,0.39 -1.56,0.4 9.54,-9.68 13.94,-13.47 1.71,-1.48 4.8,-1.42 6.53,0.13 9.9,5.06 2.720004,3.97 4.000004,5.17 z"
       id="path156" />
    <path
       fill="#cfdee9"
       d="m 453.51925,208.58925 c 1.93,10.78 6.45,20.02 12.24,29.51 q -1.09,1.23 -2.3,2.65 -1.16,1.35 -2.44,2.51 c -13.04,11.77 -25.96,24.4 -38.38,36.02 q -17.07,15.98 -33.93,32.18 c -28.61,27.48 -57.8,54.33 -86.6,81.62 -39.2,37.14 -78.24,74.45 -117.53,111.5 q -2.53,2.39 -5.66,2.29 -8.08,-0.24 -16.53,-3.18 2.95,-3.5 7.24,-7.3 4.37,-3.87 8.55,-7.95 19.5,-19.01 39.08,-37.93 c 9.45,-9.13 18.1,-16.82 26.18,-24.81 7.23,-7.16 14.62,-14.21 21.77,-21.42 15.42,-15.57 31.94,-30.01 47.48,-45.49 q 22.13,-22.05 44.63,-43.72 10.87,-10.47 20.96,-21.67 c 9.6,-10.66 17.92,-19.08 27.05,-28.51 3.32,-3.42 9.63,-9.29 13.97,-14.5 0.61,-0.72 1.59,-1.31 2.26,-2.07 q 5.12,-5.87 10.92,-11.08 6.3,-5.67 17.7,-19.28 0.5,-0.6 1.73,-3.07 0.23,-0.44 0.2,-0.94 -0.07,-1.11 0.62,-1.96 0.31,-0.38 0.39,-0.87 z"
       id="path157" />
    <path
       fill="#95b2c9"
       d="m 507.06925,243.72925 q -0.19,0.41 -0.39,0.82 -1.92,0.92 -3.82,1.76 c -5.07,2.25 -12.88,-0.05 -16.09,4.54 l -1.57,1.54 q -0.74,-0.06 -1.27,0.78 a 1.58,1.63 3.9 0 1 -0.67,0.6 c -1.3,0.62 -2.46,1.21 -3.55,2.2 -3.59,3.22 -7.1,6.26 -10.56,9.77 -9.48,9.64 -19.63,18.72 -29.19,28.12 q -8.62,8.48 -20.45,19.4 -18.55,17.13 -54.55,52.55 c -24.5,24.1 -50.18,47.02 -74.88,70.92 q -11.47,11.09 -23.13,21.97 c -3.42,3.19 -7.16,7.25 -10.05,9.95 q -11.88,11.12 -20.99,20.11 c -10.37,10.23 -20.81,19.95 -30.94,30.21 q -2.14,2.17 -7.02,6.47 c -4.33,3.82 -8.37,8.63 -12.84,12.77 q -0.92,0.86 -3.35,3.92 -2,2.51 -5.03,3.99 1.33,-2.34 3.21,-4.04 1.85,-1.65 2.24,-2.86 0.63,-1.93 0.13,-3.84 c 2.45,-3.84 1.48,-9.93 -1.48,-13.19 -3.01,-3.31 -7.67,-5.49 -12.37,-4.77 a 1.45,1.5 17.5 0 0 -0.85,0.46 c -2.22,2.48 -5.91,6.27 -5.87,9.5 q 0.01,0.52 -0.52,0.48 -8.48,-0.67 -9.8,6.92 -1.03,4.06 0.4,7.56 c 2.89,7.04 8.44,10.57 16.12,8.28 q 4.35,-1.28 7.85,-3.76 -0.01,0.58 -0.48,0.82 c -1,0.53 -1.78,1.36 -2.37,2.35 q -0.28,0.45 0.11,0.81 1.83,1.74 1.47,4.36 a 1.21,1.33 37 0 0 0.06,0.63 l 0.51,1.49 q 0.17,0.47 0.15,0.97 -0.06,1.38 -0.67,2.53 a 0.74,0.73 39 0 0 0.09,0.84 q 0.58,0.66 1.4,0.9 0.26,0.07 0.24,0.33 0,0.15 -0.01,0.32 0,0.3 -0.3,0.38 -1.08,0.28 -1.06,1.42 c -5.85,2.14 -11.99,2.55 -17.52,1.79 -14.03,-1.93 -22.84,-15.1 -24.25,-28.74 l 0.4,-2.67 q 0.23,0.54 0.24,1.07 0.01,0.53 0.48,0.29 0.2,-0.1 0.33,-0.36 0.53,-1.05 0.81,-1.96 0.19,-0.63 0.21,0.03 l 0.06,1.45 a 0.65,0.65 0 0 0 1.24,0.24 c 3.09,-6.81 4.74,-13.49 10.35,-18.87 q 6.96,-6.68 15.11,-13.59 8.45,2.94 16.53,3.18 3.13,0.1 5.66,-2.29 c 39.29,-37.05 78.33,-74.36 117.53,-111.5 28.8,-27.29 57.99,-54.14 86.6,-81.62 q 16.86,-16.2 33.93,-32.18 c 12.42,-11.62 25.34,-24.25 38.38,-36.02 q 1.28,-1.16 2.44,-2.51 1.21,-1.42 2.3,-2.65 3.51,-1.53 6.5,-4.71 c 2.01,-2.13 2.97,-5.05 4.14,-7.79 7.87,-18.33 35.4,-12.18 34.64,7.38 q -0.25,6.34 -3.97,10.75 z"
       id="path158" />
    <path
       fill="#ffffff"
       d="m 378.60925,214.86925 c -10.02,14.75 -23.31,27.94 -35.75,40.56 a 0.91,0.91 0 0 1 -1.3,-0.01 c -12.46,-12.73 -24.81,-25.34 -35.66,-39.69 q 34.42,-0.17 68.27,-0.23 1.9,-0.01 4.44,-0.63 z"
       id="path159" />
    <path
       fill="#95b2c9"
       d="m 204.87925,217.90925 q 0.34,-0.3 0.79,0.17 c 14.13,14.65 27.74,27.91 41.57,41.77 5.9,5.91 12.47,11.54 18.04,17.3 q 15.37,15.87 31.62,30.96 -6.46,5.52 -12.91,13.39 -1.61,0.93 -2.57,-0.08 c -3.51,-3.65 -6.74,-7.76 -10.26,-11.1 -14.33,-13.59 -27.2,-25.56 -42.24,-41.46 -7.03,-7.43 -14.53,-14.66 -21.76,-22.04 q -3.75,-3.83 -7.48,-7.28 -3.85,-3.56 -7.66,-7.13 7.05,-6.72 12.61,-13.5 0.3,-0.37 0.25,-1 z"
       id="path160" />
    <path
       fill="#01273c"
       d="m 129.20925,245.05925 q 2.47,3.1 5.83,5.02 4.39,8.68 -1.38,14.56 c -3.81,3.88 -8.16,9.5 -12.83,12.2 -4.88,2.82 -10.53,1.55 -14.36,-2.46 q -17.240004,-18.03 -35.210004,-35.29 c -4.89,-4.7 -6.29,-11.01 -0.81,-16.01 q 1.19,-0.01 1.56,-0.4 a 1.65,1.65 0 0 1 2.59,0.26 c 1.76,2.79 5.12,4.57 7.47,7.51 q 2.36,2.95 4.06,4.61 c 4.66,4.55 9.15,9.55 13.75,13.78 q 4.990004,4.57 9.970004,9.16 c 5.48,5.04 8.94,-2.08 12.04,-5.37 q 0.12,-0.12 2.36,-1.79 1.25,-0.93 1.78,-2.55 0.38,-1.18 3.18,-3.23 z"
       id="path161" />
    <path
       fill="#5e7ea0"
       d="m 192.01925,232.40925 q 3.81,3.57 7.66,7.13 3.73,3.45 7.48,7.28 c 7.23,7.38 14.73,14.61 21.76,22.04 15.04,15.9 27.91,27.87 42.24,41.46 3.52,3.34 6.75,7.45 10.26,11.1 q 0.96,1.01 2.57,0.08 -1.76,2.65 -4.69,3.26 c -1.93,0.4 -5.21,0.5 -7.88,0.38 q -1.59,-0.07 -2.73,0.7 a 1.19,1.19 0 0 1 -1.82,-0.73 q -0.28,-1.28 -1.95,-0.92 -36.33,-36.91 -72.92,-73.6 -5.65,-5.66 -11.73,-12.44 z"
       id="path162" />
    <path
       fill="#01273c"
       d="m 180.26925,238.14925 q 6.08,6.78 11.73,12.44 36.59,36.69 72.92,73.6 l 17.05,16.96 q 0.28,0.51 0.06,1.14 -0.14,0.44 -0.68,0.83 c -6.06,4.49 -11.16,10.91 -16.02,16.44 a 2.24,2.24 0 0 1 -2.98,0.35 l -2.23,-1.59 c -37.76,-38.42 -76.09,-76.37 -113.16,-115.45 q -3.38,-3.57 -7.98,-0.98 3.04,-3.76 9.2,-3.76 14.14,0 28.3,0.06 0.59,0.01 1.88,-0.13 1.2,-0.14 1.91,0.09 z"
       id="path163" />
    <path
       fill="#5e7ea0"
       d="m 506.67925,244.54925 q -5.76,7.3 -15.49,6.58 -2.28,-0.17 -4.42,-0.28 c 3.21,-4.59 11.02,-2.29 16.09,-4.54 q 1.9,-0.84 3.82,-1.76 z"
       id="path164" />
    <path
       fill="#5e7ea0"
       d="m 485.19925,252.38925 -1.38,2.01 a 1.29,1.29 0 0 0 0.39,1.84 c 1.63,0.98 6.42,3.5 7.39,5.02 q 0.39,0.6 -0.12,1.1 c -9.19,9 -18.09,18.01 -27.43,26.72 q -18.5,17.24 -36.58,34.91 c -18.47,18.05 -37.04,35.62 -56.04,53.58 -8.19,7.74 -16.13,15.61 -24.45,23.39 q -10.12,9.46 -25.63,24.39 c -11.49,11.06 -30.58,28.51 -46.07,43.81 -6.69,6.61 -13.75,13.05 -20.24,19.59 -23.79,23.97 -49.13,46.38 -72.62,70.67 q -3.32,3.43 -7.49,5.59 -0.02,-1.14 1.06,-1.42 0.3,-0.08 0.3,-0.38 0.01,-0.17 0.01,-0.32 0.02,-0.26 -0.24,-0.33 -0.82,-0.24 -1.4,-0.9 a 0.74,0.73 39 0 1 -0.09,-0.84 q 0.61,-1.15 0.67,-2.53 0.02,-0.5 -0.15,-0.97 l -0.51,-1.49 a 1.21,1.33 37 0 1 -0.06,-0.63 q 0.36,-2.62 -1.47,-4.36 -0.39,-0.36 -0.11,-0.81 c 0.59,-0.99 1.37,-1.82 2.37,-2.35 q 0.47,-0.24 0.48,-0.82 0.42,-0.66 0.94,-0.74 3.03,-1.48 5.03,-3.99 2.43,-3.06 3.35,-3.92 c 4.47,-4.14 8.51,-8.95 12.84,-12.77 q 4.88,-4.3 7.02,-6.47 c 10.13,-10.26 20.57,-19.98 30.94,-30.21 q 9.11,-8.99 20.99,-20.11 c 2.89,-2.7 6.63,-6.76 10.05,-9.95 q 11.66,-10.88 23.13,-21.97 c 24.7,-23.9 50.38,-46.82 74.88,-70.92 q 36,-35.42 54.55,-52.55 11.83,-10.92 20.45,-19.4 c 9.56,-9.4 19.71,-18.48 29.19,-28.12 3.46,-3.51 6.97,-6.55 10.56,-9.77 1.09,-0.99 2.25,-1.58 3.55,-2.2 a 1.58,1.63 3.9 0 0 0.67,-0.6 q 0.53,-0.84 1.27,-0.78 z"
       id="path165" />
    <path
       fill="#43678b"
       d="m 312.12925,292.80925 8.78,8.95 q 1.21,1.23 -0.04,2.43 -12.1,11.64 -24.68,24 -6.28,6.17 -12.54,12.36 -0.43,0.43 -1.68,0.6 l -17.05,-16.96 q 1.67,-0.36 1.95,0.92 a 1.19,1.19 0 0 0 1.82,0.73 q 1.14,-0.77 2.73,-0.7 c 2.67,0.12 5.95,0.02 7.88,-0.38 q 2.93,-0.61 4.69,-3.26 6.45,-7.87 12.91,-13.39 z"
       id="path166" />
    <path
       fill="#013a57"
       d="m 436.96925,367.67925 c 10.9,10.48 21.98,21.83 32.28,31.79 q 47.49,45.94 94.66,92.2 10.62,10.41 15.16,21.57 5.94,14.61 3.74,32.16 c -2.95,0.1 -6.13,1.09 -8.45,1.45 -5.26,0.79 -16.16,5.28 -18.36,-1.89 q -0.13,-0.43 -1.19,-3.4 -0.69,-1.93 -0.12,-4.15 a 0.08,0.08 0 0 0 -0.06,-0.1 q -0.59,-0.12 -0.13,-0.01 0.02,0 0.02,0.02 0.23,1.18 -0.53,1.87 l -0.16,-0.9 c 1.7,-19.42 -10.31,-26.17 -22.03,-37.99 -8.89,-8.97 -23.87,-22.67 -35.93,-34.61 -9.19,-9.1 -19.73,-18.9 -27.94,-26.92 q -25.13,-24.55 -50.61,-48.74 0.5,-0.61 -1.02,-1.81 c 1.77,0.28 2.83,0.3 4.15,-1.1 3.31,-3.51 6.43,-6.22 9.68,-10.67 2.7,-3.69 5.85,-3.02 6.84,-8.77 z"
       id="path167" />
    <path
       fill="#43678b"
       d="m 416.29925,388.21925 q 1.52,1.2 1.02,1.81 l -3.88,3 q -0.83,1.64 -1.91,2.75 -3.63,3.74 -9.68,8.85 l -16.4,15.7 q -0.2,0.1 -0.15,1.14 0.03,0.49 -0.31,0.84 c -3.02,3.15 -3.9,5.46 -2.59,9.82 a 1.46,1.45 48.1 0 1 -0.05,0.98 q -0.68,1.66 -0.24,3.31 l -15.62,-15.71 q -0.54,-0.55 0.01,-1.09 l 39.36,-38.49 q 0.99,-0.97 2.05,-0.07 z"
       id="path168" />
    <path
       fill="#ffffff"
       d="m 417.31925,390.02925 q 25.48,24.19 50.61,48.74 c 8.21,8.02 18.75,17.82 27.94,26.92 12.06,11.94 27.04,25.64 35.93,34.61 11.72,11.82 23.73,18.57 22.03,37.99 -1.63,-0.67 -3.13,-1.82 -3.74,-3.62 -1.1,-3.24 -1.5,-6.87 -2.79,-9.68 -4.26,-9.32 -13.61,-14.02 -19.98,-19.87 q -10.31,-10.46 -20.84,-20.76 -4.44,-4.35 -11.88,-12.17 -12.13,-12.77 -28.57,-27.88 -9.83,-9.03 -34.3,-33.42 -1.41,-1.4 -9.37,-8.66 -4.71,-4.3 -8.92,-9.2 z"
       id="path169" />
    <path
       fill="#cfdee9"
       d="m 413.43925,393.02925 q 4.21,4.9 8.92,9.2 7.96,7.26 9.37,8.66 24.47,24.39 34.3,33.42 16.44,15.11 28.57,27.88 7.44,7.82 11.88,12.17 10.53,10.3 20.84,20.76 c -4.81,-0.28 -17.87,4.13 -21.37,1.02 -17.44,-15.51 -33.68,-33.04 -53.39,-51.71 -10.96,-10.39 -21.75,-21.38 -32.74,-31.96 -5.42,-5.23 -11.77,-12.05 -17.97,-17.84 q 6.05,-5.11 9.68,-8.85 1.08,-1.11 1.91,-2.75 z"
       id="path170" />
    <path
       fill="#95b2c9"
       d="m 401.84925,404.62925 c 6.2,5.79 12.55,12.61 17.97,17.84 10.99,10.58 21.78,21.57 32.74,31.96 19.71,18.67 35.95,36.2 53.39,51.71 3.5,3.11 16.56,-1.3 21.37,-1.02 6.37,5.85 15.72,10.55 19.98,19.87 1.29,2.81 1.69,6.44 2.79,9.68 0.61,1.8 2.11,2.95 3.74,3.62 l 0.16,0.9 c -0.47,12.92 -8.25,24.15 -21.03,27.18 q -14,3.33 -24.17,-3.82 -1.15,-3.43 -1.11,-4.62 0.05,-1.26 -0.6,-4.77 -0.44,-2.34 0.39,-6.2 0.11,-0.51 -0.11,-0.99 -0.6,-1.29 -0.37,-2.67 a 2.95,2.95 0 0 0 -0.59,-2.3 q -2.02,-2.55 -4.55,-5.25 -4.91,-5.22 -10.09,-10.17 -8.92,-8.52 -8.96,-8.56 c -29.31,-28.67 -58.3,-57.7 -87.35,-86.63 q -5.01,-4.99 -10,-10.06 z m 110.5,133.19 q -1.88,1.38 -0.4,3.59 2.63,3.94 5.8,6.51 3.87,3.16 7.67,3.44 c 5.64,0.41 7.99,-3.24 10.89,-7.48 q 1.45,-2.13 1.64,-4.02 0.24,-2.54 -0.5,-4.6 0.15,-0.26 0.61,-0.08 a 0.69,0.69 0 0 0 0.9,-0.88 q -0.69,-1.89 -1.83,-3.25 c -2.66,-3.2 -9.03,-2.46 -10.63,-5.97 -1.33,-2.95 -2.82,-6.18 -5.95,-7.23 -3.98,-1.35 -8.48,1.02 -11.68,3.55 -5.96,4.73 -5.62,15.16 3.48,16.42 z"
       id="path171" />
    <path
       fill="#5e7ea0"
       d="m 385.44925,420.32925 q 4.99,5.07 10,10.06 c 29.05,28.93 58.04,57.96 87.35,86.63 q 0.04,0.04 8.96,8.56 5.18,4.95 10.09,10.17 2.53,2.7 4.55,5.25 a 2.95,2.95 0 0 1 0.59,2.3 q -0.23,1.38 0.37,2.67 0.22,0.48 0.11,0.99 -0.83,3.86 -0.39,6.2 0.65,3.51 0.6,4.77 -0.04,1.19 1.11,4.62 l -126.68,-126.13 q -0.44,-1.65 0.24,-3.31 a 1.46,1.45 48.1 0 0 0.05,-0.98 c -1.31,-4.36 -0.43,-6.67 2.59,-9.82 q 0.34,-0.35 0.31,-0.84 -0.05,-1.04 0.15,-1.14 z"
       id="path172" />
    <path
       fill="#d3467b"
       d="m 375.50925,488.74925 q -9.03,0.41 -17.57,0.28 -11.39,-0.16 -17.55,-0.09 -13.41,0.16 -27.34,-0.38 l 30.28,-30.43 a 1.5,1.51 45.1 0 1 2.13,0 z"
       id="path173" />
    <path
       fill="#75245e"
       d="m 313.04925,488.55925 q 13.93,0.54 27.34,0.38 6.16,-0.07 17.55,0.09 8.54,0.13 17.57,-0.28 l 22.62,21.56 q 0.64,0.61 -0.24,0.61 h -106.99 q -1.27,0 -0.35,-0.87 z"
       id="path174" />
    <path
       fill="#01273c"
       d="m 182.30925,535.37925 q -4.56,3.25 -10.11,3 c -4.29,-1.48 -5.69,-5.85 -9.14,-8.5 q -0.4,-0.32 -0.91,-0.35 -6.29,-0.4 -10.73,5.25 1.32,-7.59 9.8,-6.92 0.53,0.04 0.52,-0.48 c -0.04,-3.23 3.65,-7.02 5.87,-9.5 a 1.45,1.5 17.5 0 1 0.85,-0.46 c 4.7,-0.72 9.36,1.46 12.37,4.77 2.96,3.26 3.93,9.35 1.48,13.19 z"
       id="path175" />
    <path
       fill="#01273c"
       d="m 537.44925,535.25925 q -3.14,-3.42 -6.92,-5.43 c -5.18,-2.75 -10.22,3.82 -12.07,7.66 a 1.87,1.88 17.9 0 1 -2.02,1.04 l -4.09,-0.71 c -9.1,-1.26 -9.44,-11.69 -3.48,-16.42 3.2,-2.53 7.7,-4.9 11.68,-3.55 3.13,1.05 4.62,4.28 5.95,7.23 1.6,3.51 7.97,2.77 10.63,5.97 q 1.14,1.36 1.83,3.25 a 0.69,0.69 0 0 1 -0.9,0.88 q -0.46,-0.18 -0.61,0.08 z"
       id="path176" />
    <path
       fill="#01273c"
       d="m 458.44925,587.23925 q -2.52,-0.16 -3.44,-2.07 c -1.64,-3.42 -3.47,-6.41 -5.06,-9.05 q -1.64,-2.72 -4.05,-4.82 c -1.26,-1.11 -1.9,-2.23 -2.84,-3.53 -2.19,-3.01 -5.25,-5.58 -7.67,-8.47 q -1.29,-1.53 -4.02,-4.16 -2.09,-2.02 -3.76,-4.44 -1.15,-1.67 -2.93,-3.08 -2.75,-2.18 -4.48,-5.28 a 1.31,1.28 84.5 0 0 -0.69,-0.58 l -3.9,-1.4 q -1.67,-5.53 -3.41,-11.12 -0.31,-1.01 -0.09,-1.79 a 0.54,0.53 29.8 0 1 0.89,-0.24 c 15.31,14.94 30.77,29.59 45.06,45.47 a 1.25,1.26 23.6 0 1 0.33,0.85 z"
       id="path177" />
    <path
       fill="#01273c"
       d="m 268.70925,544.04925 q -1.33,0.5 -2.08,1.6 -0.07,0.1 -0.63,0.38 -0.24,0.12 -0.33,-0.08 -0.23,-0.5 -0.71,-0.27 c -1.58,0.75 -2.81,1.17 -3.79,2.76 -1.03,1.68 -1.97,3.14 -3.45,4.56 q -4.81,4.57 -9.36,9.4 c -1.41,1.5 -3.3,2.27 -4.75,4.03 q -2.13,2.58 -3.01,3.4 c -3.04,2.79 -4.82,5.88 -8.41,8.9 -1.81,1.53 -2.33,3.26 -2.94,5.42 a 0.84,0.82 2.7 0 1 -0.66,0.59 l -0.94,0.16 q -0.36,0.06 -0.4,-0.3 l -0.21,-1.89 0.08,-8.03 a 1.26,1.24 67 0 1 0.34,-0.86 c 14.75,-15.61 29.87,-30.89 45.62,-45.49 q 1.42,-1.33 0.61,0.44 -3.25,7.04 -4.98,15.28 z"
       id="path178" />
    <path
       fill="#ffffff"
       d="m 537.44925,535.25925 q 0.74,2.06 0.5,4.6 -0.19,1.89 -1.64,4.02 c -2.9,4.24 -5.25,7.89 -10.89,7.48 q -3.8,-0.28 -7.67,-3.44 -3.17,-2.57 -5.8,-6.51 -1.48,-2.21 0.4,-3.59 l 4.09,0.71 a 1.87,1.88 17.9 0 0 2.02,-1.04 c 1.85,-3.84 6.89,-10.41 12.07,-7.66 q 3.78,2.01 6.92,5.43 z"
       id="path179" />
    <path
       fill="#ffffff"
       d="m 172.19925,538.37925 c 2.55,3.27 -0.33,6.17 -1.29,9.28 q -0.37,1.19 -2.97,2.96 c -7.68,2.29 -13.23,-1.24 -16.12,-8.28 q -1.43,-3.5 -0.4,-7.56 4.44,-5.65 10.73,-5.25 0.51,0.03 0.91,0.35 c 3.45,2.65 4.85,7.02 9.14,8.5 z"
       id="path180" />
    <path
       fill="#cfdee9"
       d="m 182.30925,535.37925 q 0.5,1.91 -0.13,3.84 -0.39,1.21 -2.24,2.86 -1.88,1.7 -3.21,4.04 -0.52,0.08 -0.94,0.74 -3.5,2.48 -7.85,3.76 2.6,-1.77 2.97,-2.96 c 0.96,-3.11 3.84,-6.01 1.29,-9.28 q 5.55,0.25 10.11,-3 z"
       id="path181" />
    <path
       fill="#013a57"
       d="m 415.60925,540.35925 3.9,1.4 a 1.31,1.28 84.5 0 1 0.69,0.58 q 1.73,3.1 4.48,5.28 1.78,1.41 2.93,3.08 1.67,2.42 3.76,4.44 2.73,2.63 4.02,4.16 c 2.42,2.89 5.48,5.46 7.67,8.47 0.94,1.3 1.58,2.42 2.84,3.53 q 2.41,2.1 4.05,4.82 c 1.59,2.64 3.42,5.63 5.06,9.05 q 0.92,1.91 3.44,2.07 0.07,5.15 -0.09,10.43 c -0.17,6.1 -1.37,12.57 -2.12,18.89 -2.58,21.95 -9.72,43.84 -18.98,63.82 l -41.5,0.05 q 6.05,-10.42 10.7,-21.36 5.04,-11.5 8.37,-23.75 5.55,-20.15 6.67,-40.75 0.66,-13.55 -0.47,-26.61 l -3.79,-22.03 z"
       id="path182" />
    <path
       fill="#013a57"
       d="m 268.70925,544.04925 -0.9,2.71 q -0.95,3.87 -2.32,9.41 -0.74,3.05 -1.52,13.45 -1.69,12.79 -0.25,25.04 -0.22,0.13 -0.17,1.5 0.78,19.89 6.18,39.05 -0.1,0.85 0.09,1.58 3,11.63 7.59,22.19 4.59,11 10.69,20.85 l -40.26,0.63 q -0.25,0 -0.49,-0.09 l -0.41,-0.15 c -8.01,-17.08 -13.35,-35 -17.07,-53.41 -3.03,-15.03 -3.31,-27.52 -2.83,-44.1 l 0.21,1.89 q 0.04,0.36 0.4,0.3 l 0.94,-0.16 a 0.84,0.82 2.7 0 0 0.66,-0.59 c 0.61,-2.16 1.13,-3.89 2.94,-5.42 3.59,-3.02 5.37,-6.11 8.41,-8.9 q 0.88,-0.82 3.01,-3.4 c 1.45,-1.76 3.34,-2.53 4.75,-4.03 q 4.55,-4.83 9.36,-9.4 c 1.48,-1.42 2.42,-2.88 3.45,-4.56 0.98,-1.59 2.21,-2.01 3.79,-2.76 q 0.48,-0.23 0.71,0.27 0.09,0.2 0.33,0.08 0.56,-0.28 0.63,-0.38 0.75,-1.1 2.08,-1.6 z"
       id="path183" />
    <path
       fill="#07bafc"
       d="m 417.23925,545.92925 3.79,22.03 -0.22,2.35 a 0.6,0.59 3.1 0 1 -0.61,0.54 c -10.14,-0.29 -19.4,-0.14 -30.53,0.22 q -15.99,0.5 -73.75,0.3 -24.13,-0.09 -48.25,-0.11 -2.56,0 -3.7,-1.64 0.78,-10.4 1.52,-13.45 1.37,-5.54 2.32,-9.41 73.94,0.35 147.61,0.03 1.59,-0.01 1.82,-0.86 z"
       id="path184" />
    <path
       fill="#027db6"
       d="m 421.02925,567.95925 q 1.13,13.06 0.47,26.61 l -157.78,0.09 q -1.44,-12.25 0.25,-25.04 1.14,1.64 3.7,1.64 24.12,0.02 48.25,0.11 57.76,0.2 73.75,-0.3 c 11.13,-0.36 20.39,-0.51 30.53,-0.22 a 0.6,0.59 3.1 0 0 0.61,-0.54 z"
       id="path185" />
    <path
       fill="#ffffff"
       d="m 421.49925,594.56925 q -1.12,20.6 -6.67,40.75 -72.55,0.4 -144.66,0.3 -0.31,0 -0.44,-0.41 -5.4,-19.16 -6.18,-39.05 -0.05,-1.37 0.17,-1.5 z"
       id="path186" />
    <path
       fill="#07bafc"
       d="m 269.72925,635.20925 q 0.13,0.41 0.44,0.41 72.11,0.1 144.66,-0.3 -3.33,12.25 -8.37,23.75 l -129.05,-0.09 q -4.59,-10.56 -7.59,-22.19 -0.19,-0.73 -0.09,-1.58 z"
       id="path187" />
    <path
       fill="#027db6"
       d="m 406.45925,659.06925 q -4.65,10.94 -10.7,21.36 -4.18,-0.25 -5.59,-0.26 -50.38,-0.31 -100.75,0.25 -0.77,0.01 -1.32,-0.59 -6.1,-9.85 -10.69,-20.85 z"
       id="path188" />
  </g>
  <text
     xml:space="preserve"
     style="font-size:128px;line-height:1.25;font-family:Arial;-inkscape-font-specification:Arial;letter-spacing:-5px;fill:#262626"
     x="242.33368"
     y="152.34375"
     id="text1"><tspan
       sodipodi:role="line"
       id="tspan1"
       x="242.33368"
       y="152.34375"
       style="font-style:normal;font-variant:normal;font-weight:bold;font-stretch:normal;font-size:128px;font-family:Arial;-inkscape-font-specification:'Arial Bold';letter-spacing:-5px;fill:#262626">genimtools</tspan></text>
</svg>
